<mxfile host="app.diagrams.net" agent="Mozilla/5.0 (Windows NT 10.0; Win64; x64) AppleWebKit/537.36 (KHTML, like Gecko) Chrome/127.0.0.0 Safari/537.36 Edg/127.0.0.0" version="24.7.7">
  <diagram name="Seite-1" id="droPLx8h_yO0OCPhd0js">
    <mxGraphModel dx="1426" dy="911" grid="1" gridSize="10" guides="1" tooltips="1" connect="1" arrows="1" fold="1" page="1" pageScale="1" pageWidth="827" pageHeight="1169" math="0" shadow="0">
      <root>
        <mxCell id="0" />
        <mxCell id="1" parent="0" />
        <mxCell id="gTzAwi-1XPF8Pd667Z55-1" value="Open Source Components" style="ellipse;shape=cloud;whiteSpace=wrap;html=1;" parent="1" vertex="1">
          <mxGeometry x="80" y="338" width="120" height="80" as="geometry" />
        </mxCell>
        <mxCell id="gTzAwi-1XPF8Pd667Z55-2" value="Integration Approval" style="rounded=0;whiteSpace=wrap;html=1;rotation=-90;fillColor=#d5e8d4;strokeColor=#82b366;" parent="1" vertex="1">
          <mxGeometry x="145" y="345" width="160" height="30" as="geometry" />
        </mxCell>
        <mxCell id="gTzAwi-1XPF8Pd667Z55-3" value="Distribution Approval" style="rounded=0;whiteSpace=wrap;html=1;rotation=-90;fillColor=#d5e8d4;strokeColor=#82b366;" parent="1" vertex="1">
          <mxGeometry x="396" y="345" width="160" height="30" as="geometry" />
        </mxCell>
        <mxCell id="gTzAwi-1XPF8Pd667Z55-4" value="Development" style="rounded=0;whiteSpace=wrap;html=1;fillColor=#fff2cc;strokeColor=#d6b656;" parent="1" vertex="1">
          <mxGeometry x="280" y="348" width="160" height="60" as="geometry" />
        </mxCell>
        <mxCell id="gTzAwi-1XPF8Pd667Z55-5" value="Development Monitoring" style="rounded=0;whiteSpace=wrap;html=1;fillColor=#d5e8d4;strokeColor=#82b366;" parent="1" vertex="1">
          <mxGeometry x="280" y="280" width="160" height="40" as="geometry" />
        </mxCell>
        <mxCell id="gTzAwi-1XPF8Pd667Z55-6" value="Maintenance Monitoring" style="rounded=0;whiteSpace=wrap;html=1;fillColor=#d5e8d4;strokeColor=#82b366;" parent="1" vertex="1">
          <mxGeometry x="541" y="280" width="100" height="40" as="geometry" />
        </mxCell>
        <mxCell id="gTzAwi-1XPF8Pd667Z55-7" value="&lt;div&gt;&lt;br&gt;&lt;/div&gt;&lt;div&gt;&lt;br&gt;&lt;/div&gt;&lt;div&gt;&lt;br&gt;&lt;/div&gt;&lt;div&gt;&lt;br&gt;&lt;/div&gt;&lt;div&gt;&lt;br&gt;&lt;/div&gt;&lt;div&gt;&lt;br&gt;&lt;/div&gt;&lt;div&gt;&lt;br&gt;&lt;/div&gt;&lt;div&gt;&lt;br&gt;&lt;/div&gt;&lt;div&gt;&lt;br&gt;&lt;/div&gt;&lt;div&gt;&lt;br&gt;&lt;/div&gt;Software Product" style="html=1;whiteSpace=wrap;shape=isoCube2;backgroundOutline=1;isoAngle=15;" parent="1" vertex="1">
          <mxGeometry x="546" y="330" width="90" height="100" as="geometry" />
        </mxCell>
        <mxCell id="gTzAwi-1XPF8Pd667Z55-8" value="" style="html=1;shadow=0;dashed=0;align=center;verticalAlign=middle;shape=mxgraph.arrows2.arrow;dy=0.4;dx=29;notch=0;fillColor=none;" parent="1" vertex="1">
          <mxGeometry x="190" y="353" width="90" height="40" as="geometry" />
        </mxCell>
        <mxCell id="gTzAwi-1XPF8Pd667Z55-9" value="" style="html=1;shadow=0;dashed=0;align=center;verticalAlign=middle;shape=mxgraph.arrows2.arrow;dy=0.4;dx=29;notch=0;fillColor=none;" parent="1" vertex="1">
          <mxGeometry x="441" y="353" width="90" height="40" as="geometry" />
        </mxCell>
        <mxCell id="TJgNjzUTwZLBY8b1rBSF-1" value="&lt;div style=&quot;font-family: Consolas, &amp;quot;Courier New&amp;quot;, monospace; line-height: 19px; white-space: pre; font-size: 11px;&quot;&gt;&lt;font style=&quot;font-size: 11px;&quot;&gt;SPDX-FileCopyrightText: 2024 Eclipse Apoapsis Contributors&lt;/font&gt;&lt;/div&gt;&lt;div style=&quot;font-family: Consolas, &amp;quot;Courier New&amp;quot;, monospace; line-height: 19px; white-space: pre; font-size: 11px;&quot;&gt;&lt;div style=&quot;line-height: 19px;&quot;&gt;&lt;font style=&quot;font-size: 11px;&quot;&gt;SPDX-License-Identifier: CC-BY-4.0&lt;/font&gt;&lt;/div&gt;&lt;/div&gt;" style="text;html=1;align=left;verticalAlign=middle;whiteSpace=wrap;rounded=0;labelBackgroundColor=none;" vertex="1" parent="1">
          <mxGeometry x="280" y="520" width="139" height="30" as="geometry" />
        </mxCell>
      </root>
    </mxGraphModel>
  </diagram>
</mxfile>
